<svg xmlns="http://www.w3.org/2000/svg" version="1.1" xmlns:xlink="http://www.w3.org/1999/xlink" viewBox="0 0 200 200"><rect width="200" height="200" fill="url('#gradient')"></rect><defs><linearGradient id="gradient" gradientTransform="rotate(45 0.5 0.5)"><stop offset="0%" stop-color="#ceaa96"></stop><stop offset="100%" stop-color="#8fa983"></stop></linearGradient></defs><g><g fill="#445272" transform="matrix(4.396946564885496,0,0,4.396946564885496,5.286804396687572,131.26166552987718)" stroke="#c8512e" stroke-width="0.2"><path d="M1.07-14.22L5.58-14.22L8.75-4.33L11.91-14.22L16.43-14.22L16.43 0L12.99 0L12.99-3.32L13.32-10.12L9.88 0L7.62 0L4.17-10.13L4.50-3.32L4.50 0L1.07 0L1.07-14.22ZM20.91-14.22L23.54-8.05L26.15-14.22L29.85-14.22L25.27-5.11L25.27 0L21.80 0L21.80-5.11L17.23-14.22L20.91-14.22ZM38.33 0L37.50-2.66L32.80-2.66L31.98 0L28.32 0L33.54-14.22L36.76-14.22L42.01 0L38.33 0ZM35.15-10.23L33.62-5.30L36.68-5.30L35.15-10.23Z"></path></g></g></svg>
